Coordinates
version=1
nRows=4
nColumns=63
inDegrees=yes

Units are S.I. units (second, meters, Newtons, ...)
If the header above contains a line with 'inDegrees', this indicates whether rotational values are in degrees (yes) or radians (no).

endheader
time	pelvis_tilt	pelvis_list	pelvis_rotation	pelvis_tx	pelvis_ty	pelvis_tz	hip_flexion_r	hip_adduction_r	hip_rotation_r	knee_angle_r	knee_angle_r_beta	ankle_angle_r	subtalar_angle_r	mtp_angle_r	hip_flexion_l	hip_adduction_l	hip_rotation_l	knee_angle_l	knee_angle_l_beta	ankle_angle_l	subtalar_angle_l	mtp_angle_l	L5_S1_Flex_Ext	L5_S1_Lat_Bending	L5_S1_axial_rotation	L4_L5_Flex_Ext	L4_L5_Lat_Bending	L4_L5_axial_rotation	L3_L4_Flex_Ext	L3_L4_Lat_Bending	L3_L4_axial_rotation	L2_L3_Flex_Ext	L2_L3_Lat_Bending	L2_L3_axial_rotation	L1_L2_Flex_Ext	L1_L2_Lat_Bending	L1_L2_axial_rotation	L1_T12_Flex_Ext	L1_T12_Lat_Bending	L1_T12_axial_rotation	Abs_r3	Abs_r2	Abs_r1	Abs_t1	Abs_t2	neck_flexion	neck_bending	neck_rotation	arm_flex_r	arm_add_r	arm_rot_r	elbow_flex_r	pro_sup_r	wrist_flex_r	wrist_dev_r	arm_flex_l	arm_add_l	arm_rot_l	elbow_flex_l	pro_sup_l	wrist_flex_l	wrist_dev_l
      0.96666667	      1.51437020	    -11.39779533	     84.60019770	      0.24052782	      1.00131436	      0.40652729	     12.25818566	      1.90158145	      5.42119938	      6.61414550	      0.11543862	     27.49324179	     -2.44436679	      0.00000000	      8.72743877	     -3.29066934	     -9.31570140	      0.38724719	      0.00675874	     26.32870985	      4.47585788	      0.00000000	     -0.32319681	     -0.28164774	      0.04553327	     -0.60020880	     -0.37459149	      0.04837910	     -0.53098004	     -0.68479831	      0.04837910	     -0.36938164	     -0.68479831	      0.03984161	     -0.30012056	     -0.57433606	      0.03699578	     -0.18467466	     -0.43627234	      0.03414995	     -2.30856252	     -3.18605552	      0.25324237	      0.00000000	      0.00000000	     18.23402321	     11.86538448	     -3.81992131	     56.91355417	    -50.32004005	    -11.10923670	    141.00135179	     65.78042497	      7.57142254	      6.52499178	     -9.40073683	    -19.17859575	      6.04992917	     48.91658132	     87.58429286	    -16.09949088	     11.30529623
      0.98333333	      1.49399152	    -12.01877953	     84.35840806	      0.24038647	      1.00027383	      0.40821665	     13.02929351	      1.94980639	      5.49078082	      6.66828910	      0.11638360	     27.61579710	     -2.06361030	      0.00000000	      9.43846376	     -3.35832896	     -9.42932671	      0.38992694	      0.00680551	     26.21023147	      4.37009086	      0.00000000	     -0.31002791	     -0.27563517	     -0.00646958	     -0.57575283	     -0.36659478	     -0.00687392	     -0.50934485	     -0.67017936	     -0.00687392	     -0.35433090	     -0.67017936	     -0.00566088	     -0.28789191	     -0.56207524	     -0.00525653	     -0.17714995	     -0.42695888	     -0.00485218	     -2.21449834	     -3.11804019	     -0.03598184	      0.00000000	      0.00000000	     18.83403569	     11.34978697	     -3.39240466	     57.88528726	    -49.57221370	    -12.85185453	    141.22439953	     65.57155526	      6.89505745	      5.90954325	     -9.67879807	    -19.26675778	      5.83754809	     48.78080664	     87.32449285	    -16.09842904	     11.39977907
      1.00000000	      1.26994577	    -12.75160503	     83.97891240	      0.24107825	      0.99918126	      0.40973458	     14.01644165	      1.87148254	      5.29126439	      6.91577250	      0.12070300	     28.08429467	     -1.29269815	      0.00000000	     10.26790571	     -3.30401303	    -10.23767556	      0.39931080	      0.00696929	     26.19518664	      5.06013050	      0.00000000	     -0.26997965	     -0.31252386	      0.01995530	     -0.50137921	     -0.41565674	      0.02120250	     -0.44354957	     -0.75987052	      0.02120250	     -0.30855975	     -0.75987052	      0.01746088	     -0.25070311	     -0.63729866	      0.01621368	     -0.15426637	     -0.48409946	      0.01496647	     -1.92843766	     -3.53533242	      0.11098537	      0.00000000	      0.00000000	     19.46486865	     11.04572767	     -4.13354380	     57.67730633	    -49.12953325	    -15.48598637	    142.07051512	     68.26416959	      2.66561184	      4.99738118	    -10.15801864	    -19.28484352	      4.72929310	     49.39228911	     87.82944962	    -15.99610475	     12.52680807
      1.01666667	      1.13682277	    -13.36469636	     83.63464383	      0.24150038	      0.99833953	      0.41125988	     14.82442453	      1.83652348	      4.75741265	      7.04926545	      0.12303289	     28.55412040	     -0.11045464	      0.00000000	     10.97017653	     -3.32038968	    -11.55046526	      0.40872623	      0.00713362	     26.29680403	      6.52742476	      0.00000000	     -0.24697350	     -0.32215360	      0.06341469	     -0.45865449	     -0.42846429	      0.06737811	     -0.40575276	     -0.78328426	      0.06737811	     -0.28226601	     -0.78328426	      0.05548785	     -0.22933959	     -0.65693562	      0.05152444	     -0.14112066	     -0.49901592	      0.04756102	     -1.76410701	     -3.64426594	      0.35269348	      0.00000000	      0.00000000	     19.81622044	     10.48047269	     -4.04558743	     58.20778158	    -48.75945948	    -17.18799207	    142.64986990	     71.22448018	     -2.51754866	      4.45612525	    -10.15710170	    -19.54081791	      4.94079661	     49.50485348	     87.97428088	    -15.62477712	     12.68047860
